<svg width="36" height="36" viewBox="0 0 36 36" fill="none" xmlns="http://www.w3.org/2000/svg">
  <path d="M0 8C0 4.22876 0 2.34315 1.17157 1.17157C2.34315 0 4.22876 0 8 0H28C31.7712 0 33.6569 0 34.8284 1.17157C36 2.34315 36 4.22876 36 8V28C36 31.7712 36 33.6569 34.8284 34.8284C33.6569 36 31.7712 36 28 36H8C4.22876 36 2.34315 36 1.17157 34.8284C0 33.6569 0 31.7712 0 28V8Z" fill="#2B5FF3"/>
  <path fill-rule="evenodd" clip-rule="evenodd" d="M17.5469 3.97273C17.8711 3.77006 18.2826 3.77006 18.6069 3.97273L29.3658 10.6971C29.8341 10.9898 29.9765 11.6067 29.6838 12.0751L28.6238 13.7711C28.3311 14.2394 27.7141 14.3818 27.2458 14.0891L18.6069 8.68972C18.2826 8.48705 17.8711 8.48705 17.5469 8.68972L8.90794 14.0891C8.4396 14.3818 7.82265 14.2394 7.52994 13.7711L6.46994 12.0751C6.17723 11.6067 6.3196 10.9898 6.78794 10.6971L17.5469 3.97273Z" fill="white"/>
  <path d="M24.5067 26.932C24.9082 27.3113 24.9293 27.9491 24.5078 28.306C23.3661 29.2727 21.997 29.9431 20.5219 30.2494C18.7193 30.6237 16.8452 30.4362 15.1525 29.7121C13.4598 28.988 12.0298 27.7622 11.0555 26.2C10.0813 24.6378 9.60955 22.8144 9.704 20.9757C9.79844 19.137 10.4545 17.3715 11.5837 15.9174C12.7129 14.4632 14.2609 13.3904 16.0189 12.8435C17.7769 12.2967 19.6604 12.3022 21.4152 12.8592C22.8511 13.315 24.1443 14.1222 25.181 15.2008C25.5637 15.5989 25.4773 16.2313 25.0391 16.5675L23.3687 17.8492C22.9305 18.1854 22.3081 18.0928 21.89 17.732C21.3911 17.3014 20.8077 16.9737 20.173 16.7723C19.2187 16.4693 18.1944 16.4664 17.2384 16.7638C16.2823 17.0611 15.4404 17.6446 14.8263 18.4354C14.2122 19.2262 13.8554 20.1864 13.8041 21.1863C13.7527 22.1862 14.0093 23.1779 14.5391 24.0274C15.0689 24.877 15.8466 25.5437 16.7672 25.9375C17.6877 26.3312 18.7069 26.4332 19.6872 26.2297C20.3392 26.0943 20.9531 25.8281 21.4935 25.4509C21.9464 25.1348 22.575 25.1065 22.9764 25.4859L24.5067 26.932Z" fill="white"/>
  </svg>
  