<svg width="118" height="36" viewBox="0 0 118 36" fill="none" xmlns="http://www.w3.org/2000/svg">
  <path d="M68.4388 30V20.2H71.9668C72.6482 20.2 73.2502 20.3026 73.7728 20.508C74.2955 20.7133 74.7062 21.0306 75.0048 21.46C75.3035 21.8893 75.4528 22.4353 75.4528 23.098C75.4528 23.3966 75.3688 23.6906 75.2008 23.98C75.0328 24.2693 74.7995 24.5353 74.5008 24.778C74.9302 25.0113 75.2615 25.3193 75.4948 25.702C75.7282 26.0753 75.8448 26.5373 75.8448 27.088C75.8448 27.7133 75.7002 28.2453 75.4108 28.684C75.1215 29.1133 74.7202 29.44 74.2068 29.664C73.7028 29.888 73.1195 30 72.4568 30H68.4388ZM70.9588 27.718H72.1488C72.4568 27.718 72.6995 27.634 72.8768 27.466C73.0635 27.298 73.1568 27.0833 73.1568 26.822C73.1568 26.5606 73.0635 26.3553 72.8768 26.206C72.6995 26.0473 72.4568 25.968 72.1488 25.968H70.9588V27.718ZM70.9588 23.91H71.7848C72.0835 23.91 72.3262 23.8353 72.5128 23.686C72.6995 23.5366 72.7928 23.3266 72.7928 23.056C72.7928 22.7853 72.6995 22.5753 72.5128 22.426C72.3262 22.2766 72.0835 22.202 71.7848 22.202H70.9588V23.91Z" fill="#2B5FF3"/>
  <path d="M63.228 30.168C62.36 30.168 61.6134 30.0093 60.988 29.692C60.3627 29.3746 59.882 28.922 59.546 28.334C59.2194 27.7366 59.056 27.0273 59.056 26.206V20.2H61.646V26.206C61.646 26.5326 61.7114 26.8126 61.842 27.046C61.9727 27.2793 62.1547 27.4566 62.388 27.578C62.6307 27.6993 62.92 27.76 63.256 27.76C63.592 27.76 63.8814 27.6993 64.124 27.578C64.3667 27.4566 64.5487 27.2793 64.67 27.046C64.8007 26.8126 64.866 26.5326 64.866 26.206V20.2H67.456V26.206C67.456 27.0273 67.288 27.7366 66.952 28.334C66.616 28.922 66.1307 29.3746 65.496 29.692C64.8707 30.0093 64.1147 30.168 63.228 30.168Z" fill="#2B5FF3"/>
  <path d="M52.0178 30V20.2H54.6078V27.62H58.6398V30H52.0178Z" fill="#2B5FF3"/>
  <path d="M46.9006 30.168C45.9206 30.168 45.0526 29.9533 44.2966 29.524C43.5499 29.0853 42.9619 28.488 42.5325 27.732C42.1032 26.9666 41.8885 26.0893 41.8885 25.1C41.8885 24.1107 42.1032 23.238 42.5325 22.482C42.9619 21.7166 43.5499 21.1193 44.2966 20.69C45.0526 20.2513 45.9206 20.032 46.9006 20.032C47.6566 20.032 48.3379 20.1626 48.9446 20.424C49.5512 20.6853 50.0739 21.0493 50.5126 21.516C50.9512 21.9826 51.2872 22.524 51.5205 23.14L49.0566 23.924C48.9259 23.616 48.7579 23.35 48.5526 23.126C48.3472 22.8926 48.1046 22.7153 47.8246 22.594C47.5539 22.4726 47.2459 22.412 46.9006 22.412C46.4432 22.412 46.0372 22.5286 45.6825 22.762C45.3279 22.986 45.0479 23.2986 44.8426 23.7C44.6465 24.1013 44.5485 24.568 44.5485 25.1C44.5485 25.6227 44.6512 26.0893 44.8566 26.5C45.0619 26.9013 45.3419 27.2186 45.6966 27.452C46.0606 27.676 46.4759 27.788 46.9426 27.788C47.3066 27.788 47.6192 27.7273 47.8805 27.606C48.1512 27.4753 48.3799 27.298 48.5666 27.074C48.7625 26.8406 48.9306 26.57 49.0706 26.262L51.5345 27.046C51.3105 27.662 50.9792 28.208 50.5405 28.684C50.1019 29.1506 49.5746 29.5146 48.9586 29.776C48.3426 30.0373 47.6566 30.168 46.9006 30.168Z" fill="#2B5FF3"/>
  <path d="M110.906 17V7.20001H117.472V9.58001H113.496V10.938H116.716V13.248H113.496V14.62H117.57V17H110.906Z" fill="black"/>
  <path d="M105.037 17V9.58001H102.265V7.20001H110.385V9.58001H107.627V17H105.037Z" fill="black"/>
  <path d="M100.866 17L97.2816 7.20001H99.8576L103.61 17H100.866ZM93.3196 17L97.0716 7.20001H99.6476L96.0636 17H93.3196ZM95.0836 15.432V13.15H101.86V15.432H95.0836Z" fill="black"/>
  <path d="M88.9443 17.168C87.9643 17.168 87.0963 16.9533 86.3403 16.524C85.5936 16.0853 85.0056 15.488 84.5763 14.732C84.1469 13.9666 83.9323 13.0893 83.9323 12.1C83.9323 11.1106 84.1469 10.238 84.5763 9.48198C85.0056 8.71665 85.5936 8.11932 86.3403 7.68998C87.0963 7.25132 87.9643 7.03198 88.9443 7.03198C89.7003 7.03198 90.3816 7.16265 90.9883 7.42398C91.5949 7.68532 92.1176 8.04932 92.5563 8.51598C92.9949 8.98265 93.3309 9.52398 93.5643 10.14L91.1003 10.924C90.9696 10.616 90.8016 10.35 90.5963 10.126C90.3909 9.89265 90.1483 9.71532 89.8683 9.59398C89.5976 9.47265 89.2896 9.41198 88.9443 9.41198C88.4869 9.41198 88.0809 9.52865 87.7263 9.76198C87.3716 9.98598 87.0916 10.2986 86.8863 10.7C86.6903 11.1013 86.5923 11.568 86.5923 12.1C86.5923 12.6226 86.6949 13.0893 86.9003 13.5C87.1056 13.9013 87.3856 14.2186 87.7403 14.452C88.1043 14.676 88.5196 14.788 88.9863 14.788C89.3503 14.788 89.6629 14.7273 89.9243 14.606C90.1949 14.4753 90.4236 14.298 90.6103 14.074C90.8063 13.8406 90.9743 13.57 91.1143 13.262L93.5783 14.046C93.3543 14.662 93.0229 15.208 92.5843 15.684C92.1456 16.1506 91.6183 16.5146 91.0023 16.776C90.3863 17.0373 89.7003 17.168 88.9443 17.168Z" fill="black"/>
  <path d="M80.7167 17V7.20001H83.3067V17H80.7167Z" fill="black"/>
  <path d="M71.3236 17V7.20001H74.5996C75.6729 7.20001 76.6203 7.41001 77.4416 7.83001C78.2723 8.25001 78.9209 8.82868 79.3876 9.56601C79.8543 10.294 80.0876 11.1387 80.0876 12.1C80.0876 13.052 79.8543 13.8967 79.3876 14.634C78.9209 15.3713 78.2723 15.95 77.4416 16.37C76.6203 16.79 75.6729 17 74.5996 17H71.3236ZM73.9136 14.55H74.5996C75.0103 14.55 75.3883 14.4893 75.7336 14.368C76.0789 14.2467 76.3776 14.0787 76.6296 13.864C76.8816 13.6493 77.0776 13.3927 77.2176 13.094C77.3576 12.7953 77.4276 12.464 77.4276 12.1C77.4276 11.736 77.3576 11.4047 77.2176 11.106C77.0776 10.8073 76.8816 10.5507 76.6296 10.336C76.3776 10.1213 76.0789 9.95335 75.7336 9.83201C75.3883 9.71068 75.0103 9.65001 74.5996 9.65001H73.9136V14.55Z" fill="black"/>
  <path d="M61.0554 17V7.20001H63.7854L67.6074 12.59V7.20001H70.1974V17H67.6074L63.6454 11.414V17H61.0554Z" fill="black"/>
  <path d="M57.1838 12.982L54.6498 12.548L57.7718 7.20001H60.7118L57.1838 12.982ZM54.6918 17V12.296H57.2818V17H54.6918ZM54.7758 12.982L51.2478 7.20001H54.1878L57.3098 12.548L54.7758 12.982Z" fill="black"/>
  <path d="M46.9006 17.168C45.9206 17.168 45.0526 16.9533 44.2966 16.524C43.5499 16.0853 42.9619 15.488 42.5325 14.732C42.1032 13.9666 41.8885 13.0893 41.8885 12.1C41.8885 11.1106 42.1032 10.238 42.5325 9.48198C42.9619 8.71665 43.5499 8.11932 44.2966 7.68998C45.0526 7.25132 45.9206 7.03198 46.9006 7.03198C47.6566 7.03198 48.3379 7.16265 48.9446 7.42398C49.5512 7.68532 50.0739 8.04932 50.5126 8.51598C50.9512 8.98265 51.2872 9.52398 51.5205 10.14L49.0566 10.924C48.9259 10.616 48.7579 10.35 48.5526 10.126C48.3472 9.89265 48.1046 9.71532 47.8246 9.59398C47.5539 9.47265 47.2459 9.41198 46.9006 9.41198C46.4432 9.41198 46.0372 9.52865 45.6825 9.76198C45.3279 9.98598 45.0479 10.2986 44.8426 10.7C44.6465 11.1013 44.5485 11.568 44.5485 12.1C44.5485 12.6226 44.6512 13.0893 44.8566 13.5C45.0619 13.9013 45.3419 14.2186 45.6966 14.452C46.0606 14.676 46.4759 14.788 46.9426 14.788C47.3066 14.788 47.6192 14.7273 47.8805 14.606C48.1512 14.4753 48.3799 14.298 48.5666 14.074C48.7625 13.8406 48.9306 13.57 49.0706 13.262L51.5345 14.046C51.3105 14.662 50.9792 15.208 50.5405 15.684C50.1019 16.1506 49.5746 16.5146 48.9586 16.776C48.3426 17.0373 47.6566 17.168 46.9006 17.168Z" fill="black"/>
  <path d="M0 8C0 4.22876 0 2.34315 1.17157 1.17157C2.34315 0 4.22876 0 8 0H28C31.7712 0 33.6569 0 34.8284 1.17157C36 2.34315 36 4.22876 36 8V28C36 31.7712 36 33.6569 34.8284 34.8284C33.6569 36 31.7712 36 28 36H8C4.22876 36 2.34315 36 1.17157 34.8284C0 33.6569 0 31.7712 0 28V8Z" fill="#2B5FF3"/>
  <path fill-rule="evenodd" clip-rule="evenodd" d="M17.5469 3.97273C17.8711 3.77006 18.2826 3.77006 18.6069 3.97273L29.3658 10.6971C29.8341 10.9898 29.9765 11.6067 29.6838 12.0751L28.6238 13.7711C28.3311 14.2394 27.7141 14.3818 27.2458 14.0891L18.6069 8.68972C18.2826 8.48705 17.8711 8.48705 17.5469 8.68972L8.90794 14.0891C8.4396 14.3818 7.82265 14.2394 7.52994 13.7711L6.46994 12.0751C6.17723 11.6067 6.3196 10.9898 6.78794 10.6971L17.5469 3.97273Z" fill="white"/>
  <path d="M24.5067 26.932C24.9082 27.3113 24.9293 27.9491 24.5078 28.306C23.3661 29.2727 21.997 29.9431 20.5219 30.2494C18.7193 30.6237 16.8452 30.4362 15.1525 29.7121C13.4598 28.988 12.0298 27.7622 11.0555 26.2C10.0813 24.6378 9.60955 22.8144 9.704 20.9757C9.79844 19.137 10.4545 17.3715 11.5837 15.9174C12.7129 14.4632 14.2609 13.3904 16.0189 12.8435C17.7769 12.2967 19.6604 12.3022 21.4152 12.8592C22.8511 13.315 24.1443 14.1222 25.181 15.2008C25.5637 15.5989 25.4773 16.2313 25.0391 16.5675L23.3687 17.8492C22.9305 18.1854 22.3081 18.0928 21.89 17.732C21.3911 17.3014 20.8077 16.9737 20.173 16.7723C19.2187 16.4693 18.1944 16.4664 17.2384 16.7638C16.2823 17.0611 15.4404 17.6446 14.8263 18.4354C14.2122 19.2262 13.8554 20.1864 13.8041 21.1863C13.7527 22.1862 14.0093 23.1779 14.5391 24.0274C15.0689 24.877 15.8466 25.5437 16.7672 25.9375C17.6877 26.3312 18.7069 26.4332 19.6872 26.2297C20.3392 26.0943 20.9531 25.8281 21.4935 25.4509C21.9464 25.1348 22.575 25.1065 22.9764 25.4859L24.5067 26.932Z" fill="white"/>
  </svg>
  